<?xml version="1.0" encoding="utf-8"?>
<!-- Generator: Adobe Illustrator 24.0.0, SVG Export Plug-In . SVG Version: 6.00 Build 0)  -->
<svg version="1.1" id="Layer_1" xmlns="http://www.w3.org/2000/svg" xmlns:xlink="http://www.w3.org/1999/xlink" x="0px" y="0px"
	 viewBox="0 0 200 213" style="enable-background:new 0 0 200 213;" xml:space="preserve">
<style type="text/css">
	.st0{fill:#C4C4C4;filter:url(#Adobe_OpacityMaskFilter);}
	.st1{mask:url(#mask0_1_);}
	.st2{opacity:0.1;}
	.st3{fill:#FFFFFF;}
	.st4{fill:#FFD338;}
	.st5{fill:#E0E0E0;}
	.st6{fill:#FF8F2B;}
</style>
<defs>
	<filter id="Adobe_OpacityMaskFilter" filterUnits="userSpaceOnUse" x="-89" y="-216" width="518" height="518">
		<feColorMatrix  type="matrix" values="1 0 0 0 0  0 1 0 0 0  0 0 1 0 0  0 0 0 1 0"/>
	</filter>
</defs>
<mask maskUnits="userSpaceOnUse" x="-89" y="-216" width="518" height="518" id="mask0_1_">
	<rect class="st0" width="200" height="213"/>
</mask>
<g class="st1">
	<g class="st2">
		<polygon class="st3" points="429,144 427,144 427,100.1 382.1,100.1 382.1,55.2 337.2,55.2 337.2,10.4 292.4,10.4 292.4,-34.5 
			247.5,-34.5 247.5,-79.4 202.6,-79.4 202.6,-124.2 157.8,-124.2 157.8,-169.1 112.9,-169.1 112.9,-214 69,-214 69,-216 
			114.9,-216 114.9,-171.1 159.8,-171.1 159.8,-126.2 204.6,-126.2 204.6,-81.4 249.5,-81.4 249.5,-36.5 294.4,-36.5 294.4,8.4 
			339.2,8.4 339.2,53.2 384.1,53.2 384.1,98.1 429,98.1 		"/>
	</g>
	<g>
		<polygon class="st4" points="384,189 382,189 382,145.1 337.1,145.1 337.1,100.2 292.2,100.2 292.2,55.4 247.4,55.4 247.4,10.5 
			202.5,10.5 202.5,-34.4 157.6,-34.4 157.6,-79.2 112.8,-79.2 112.8,-124.1 67.9,-124.1 67.9,-169 24,-169 24,-171 69.9,-171 
			69.9,-126.1 114.8,-126.1 114.8,-81.2 159.6,-81.2 159.6,-36.4 204.5,-36.4 204.5,8.5 249.4,8.5 249.4,53.4 294.2,53.4 
			294.2,98.2 339.1,98.2 339.1,143.1 384,143.1 		"/>
	</g>
	<g class="st2">
		<polygon class="st3" points="407,167 405,167 405,123 360,123 360,78 315,78 315,33 270,33 270,-12 225,-12 225,-57 180,-57 
			180,-102 135,-102 135,-147 90,-147 90,-192 46,-192 46,-194 92,-194 92,-149 137,-149 137,-104 182,-104 182,-59 227,-59 
			227,-14 272,-14 272,31 317,31 317,76 362,76 362,121 407,121 		"/>
	</g>
	<g>
		<polygon class="st5" points="362,212 360,212 360,168 315,168 315,123 270,123 270,78 225,78 225,33 180,33 180,-12 135,-12 
			135,-57 90,-57 90,-102 45,-102 45,-147 1,-147 1,-149 47,-149 47,-104 92,-104 92,-59 137,-59 137,-14 182,-14 182,31 227,31 
			227,76 272,76 272,121 317,121 317,166 362,166 		"/>
	</g>
	<g>
		<polygon class="st5" points="339,235 337,235 337,191 292,191 292,146 247,146 247,101 202,101 202,56 157,56 157,11 112,11 
			112,-34 67,-34 67,-79 22,-79 22,-124 -22,-124 -22,-126 24,-126 24,-81 69,-81 69,-36 114,-36 114,9 159,9 159,54 204,54 204,99 
			249,99 249,144 294,144 294,189 339,189 		"/>
	</g>
	<g>
		<polygon class="st6" points="317,257 315,257 315,213 270,213 270,168 225,168 225,123 180,123 180,78 135,78 135,33 90,33 
			90,-12 45,-12 45,-57 0,-57 0,-102 -44,-102 -44,-104 2,-104 2,-59 47,-59 47,-14 92,-14 92,31 137,31 137,76 182,76 182,121 
			227,121 227,166 272,166 272,211 317,211 		"/>
	</g>
	<g>
		<polygon class="st5" points="294,280 292,280 292,236 247,236 247,191 202,191 202,146 157,146 157,101 112,101 112,56 67,56 
			67,11 22,11 22,-34 -23,-34 -23,-79 -67,-79 -67,-81 -21,-81 -21,-36 24,-36 24,9 69,9 69,54 114,54 114,99 159,99 159,144 
			204,144 204,189 249,189 249,234 294,234 		"/>
	</g>
	<g>
		<polygon class="st5" points="271,302 269,302 269,258.1 224.1,258.1 224.1,213.2 179.2,213.2 179.2,168.4 134.4,168.4 
			134.4,123.5 89.5,123.5 89.5,78.6 44.6,78.6 44.6,33.8 -0.2,33.8 -0.2,-11.1 -45.1,-11.1 -45.1,-56 -89,-56 -89,-58 -43.1,-58 
			-43.1,-13.1 1.8,-13.1 1.8,31.8 46.6,31.8 46.6,76.6 91.5,76.6 91.5,121.5 136.4,121.5 136.4,166.4 181.2,166.4 181.2,211.2 
			226.1,211.2 226.1,256.1 271,256.1 		"/>
	</g>
</g>
</svg>
