<?xml version="1.0" encoding="utf-8"?>
<!-- Generator: Adobe Illustrator 24.0.0, SVG Export Plug-In . SVG Version: 6.00 Build 0)  -->
<svg version="1.1" id="Layer_1" xmlns="http://www.w3.org/2000/svg" xmlns:xlink="http://www.w3.org/1999/xlink" x="0px" y="0px"
	 viewBox="0 0 685 1351" style="enable-background:new 0 0 685 1351;" xml:space="preserve">
<style type="text/css">
	.st0{fill:#C4C4C4;filter:url(#Adobe_OpacityMaskFilter);}
	.st1{mask:url(#mask0_1_);}
	.st2{fill:#E0E0E0;}
	.st3{fill:#FFD338;}
	.st4{fill:#FF8F2B;}
	.st5{fill:#4F4F4F;}
	.st6{fill:#C4C4C4;filter:url(#Adobe_OpacityMaskFilter_1_);}
	.st7{mask:url(#mask1_1_);}
</style>
<defs>
	<filter id="Adobe_OpacityMaskFilter" filterUnits="userSpaceOnUse" x="-396" y="0" width="1179" height="1130">
		<feColorMatrix  type="matrix" values="1 0 0 0 0  0 1 0 0 0  0 0 1 0 0  0 0 0 1 0"/>
	</filter>
</defs>
<mask maskUnits="userSpaceOnUse" x="-396" y="0" width="1179" height="1130" id="mask0_1_">
	<rect class="st0" width="685" height="665"/>
</mask>
<g class="st1">
	<g>
		<polygon class="st2" points="783,786 781,786 781,688.9 682.9,688.9 682.9,590.8 584.8,590.8 584.8,492.6 486.6,492.6 
			486.6,394.5 388.5,394.5 388.5,296.4 290.4,296.4 290.4,198.2 192.2,198.2 192.2,100.1 94.1,100.1 94.1,2 -3,2 -3,0 96.1,0 
			96.1,98.1 194.2,98.1 194.2,196.2 292.4,196.2 292.4,294.4 390.5,294.4 390.5,392.5 488.6,392.5 488.6,490.6 586.8,490.6 
			586.8,588.8 684.9,588.8 684.9,686.9 783,686.9 		"/>
	</g>
	<g>
		<polygon class="st3" points="685,884 683,884 683,786.9 584.9,786.9 584.9,688.8 486.8,688.8 486.8,590.6 388.6,590.6 
			388.6,492.5 290.5,492.5 290.5,394.4 192.4,394.4 192.4,296.2 94.2,296.2 94.2,198.1 -3.9,198.1 -3.9,100 -101,100 -101,98 
			-1.9,98 -1.9,196.1 96.2,196.1 96.2,294.2 194.4,294.2 194.4,392.4 292.5,392.4 292.5,490.5 390.6,490.5 390.6,588.6 488.8,588.6 
			488.8,686.8 586.9,686.8 586.9,784.9 685,784.9 		"/>
	</g>
	<g>
		<polygon class="st2" points="734,835 732,835 732,737.9 633.9,737.9 633.9,639.8 535.8,639.8 535.8,541.6 437.6,541.6 
			437.6,443.5 339.5,443.5 339.5,345.4 241.4,345.4 241.4,247.2 143.2,247.2 143.2,149.1 45.1,149.1 45.1,51 -52,51 -52,49 47.1,49 
			47.1,147.1 145.2,147.1 145.2,245.2 243.4,245.2 243.4,343.4 341.5,343.4 341.5,441.5 439.6,441.5 439.6,539.6 537.8,539.6 
			537.8,637.8 635.9,637.8 635.9,735.9 734,735.9 		"/>
	</g>
	<g>
		<polygon class="st2" points="636,934 634,934 634,836.8 535.8,836.8 535.8,738.5 437.5,738.5 437.5,640.2 339.2,640.2 339.2,542 
			241,542 241,443.8 142.8,443.8 142.8,345.5 44.5,345.5 44.5,247.2 -53.8,247.2 -53.8,149 -151,149 -151,147 -51.8,147 
			-51.8,245.2 46.5,245.2 46.5,343.5 144.8,343.5 144.8,441.8 243,441.8 243,540 341.2,540 341.2,638.2 439.5,638.2 439.5,736.5 
			537.8,736.5 537.8,834.8 636,834.8 		"/>
	</g>
	<g>
		<polygon class="st2" points="587,983 585,983 585,885.8 486.8,885.8 486.8,787.5 388.5,787.5 388.5,689.2 290.2,689.2 290.2,591 
			192,591 192,492.8 93.8,492.8 93.8,394.5 -4.5,394.5 -4.5,296.2 -102.8,296.2 -102.8,198 -200,198 -200,196 -100.8,196 
			-100.8,294.2 -2.5,294.2 -2.5,392.5 95.8,392.5 95.8,490.8 194,490.8 194,589 292.2,589 292.2,687.2 390.5,687.2 390.5,785.5 
			488.8,785.5 488.8,883.8 587,883.8 		"/>
	</g>
	<g>
		<polygon class="st4" points="538,1032 536,1032 536,934.8 437.8,934.8 437.8,836.5 339.5,836.5 339.5,738.2 241.2,738.2 
			241.2,640 143,640 143,541.8 44.8,541.8 44.8,443.5 -53.5,443.5 -53.5,345.2 -151.8,345.2 -151.8,247 -249,247 -249,245 
			-149.8,245 -149.8,343.2 -51.5,343.2 -51.5,441.5 46.8,441.5 46.8,539.8 145,539.8 145,638 243.2,638 243.2,736.2 341.5,736.2 
			341.5,834.5 439.8,834.5 439.8,932.8 538,932.8 		"/>
	</g>
	<g>
		<polygon class="st2" points="489,1081 487,1081 487,983.8 388.8,983.8 388.8,885.5 290.5,885.5 290.5,787.2 192.2,787.2 
			192.2,689 94,689 94,590.8 -4.2,590.8 -4.2,492.5 -102.5,492.5 -102.5,394.2 -200.8,394.2 -200.8,296 -298,296 -298,294 
			-198.8,294 -198.8,392.2 -100.5,392.2 -100.5,490.5 -2.2,490.5 -2.2,588.8 96,588.8 96,687 194.2,687 194.2,785.2 292.5,785.2 
			292.5,883.5 390.8,883.5 390.8,981.8 489,981.8 		"/>
	</g>
	<g>
		<polygon class="st2" points="439,1130 437,1130 437,1032.9 338.9,1032.9 338.9,934.8 240.8,934.8 240.8,836.6 142.6,836.6 
			142.6,738.5 44.5,738.5 44.5,640.4 -53.6,640.4 -53.6,542.2 -151.8,542.2 -151.8,444.1 -249.9,444.1 -249.9,346 -347,346 
			-347,344 -247.9,344 -247.9,442.1 -149.8,442.1 -149.8,540.2 -51.6,540.2 -51.6,638.4 46.5,638.4 46.5,736.5 144.6,736.5 
			144.6,834.6 242.8,834.6 242.8,932.8 340.9,932.8 340.9,1030.9 439,1030.9 		"/>
	</g>
	<g>
		<polygon class="st5" points="390,1119 388,1119 388,1021.9 289.9,1021.9 289.9,923.8 191.8,923.8 191.8,825.6 93.6,825.6 
			93.6,727.5 -4.5,727.5 -4.5,629.4 -102.6,629.4 -102.6,531.2 -200.8,531.2 -200.8,433.1 -298.9,433.1 -298.9,335 -396,335 
			-396,333 -296.9,333 -296.9,431.1 -198.8,431.1 -198.8,529.2 -100.6,529.2 -100.6,627.4 -2.5,627.4 -2.5,725.5 95.6,725.5 
			95.6,823.6 193.8,823.6 193.8,921.8 291.9,921.8 291.9,1019.9 390,1019.9 		"/>
	</g>
</g>
<defs>
	<filter id="Adobe_OpacityMaskFilter_1_" filterUnits="userSpaceOnUse" x="-494" y="210" width="1179" height="1239">
		<feColorMatrix  type="matrix" values="1 0 0 0 0  0 1 0 0 0  0 0 1 0 0  0 0 0 1 0"/>
	</filter>
</defs>
<mask maskUnits="userSpaceOnUse" x="-494" y="210" width="1179" height="1239" id="mask1_1_">
	<rect y="665" class="st6" width="685" height="686"/>
</mask>
<g class="st7">
	<g>
		<polygon class="st2" points="-1.9,1449 -101,1449 -101,1447 -3.9,1447 -3.9,1348.9 94.2,1348.9 94.2,1250.8 192.4,1250.8 
			192.4,1152.6 290.5,1152.6 290.5,1054.5 388.6,1054.5 388.6,956.4 486.8,956.4 486.8,858.2 584.9,858.2 584.9,760.1 683,760.1 
			683,663 685,663 685,762.1 586.9,762.1 586.9,860.2 488.8,860.2 488.8,958.4 390.6,958.4 390.6,1056.5 292.5,1056.5 292.5,1154.6 
			194.4,1154.6 194.4,1252.8 96.2,1252.8 96.2,1350.9 -1.9,1350.9 		"/>
	</g>
	<g>
		<polygon class="st2" points="-99.9,1351 -199,1351 -199,1349 -101.9,1349 -101.9,1250.9 -3.8,1250.9 -3.8,1152.8 94.4,1152.8 
			94.4,1054.6 192.5,1054.6 192.5,956.5 290.6,956.5 290.6,858.4 388.8,858.4 388.8,760.2 486.9,760.2 486.9,662.1 585,662.1 
			585,565 587,565 587,664.1 488.9,664.1 488.9,762.2 390.8,762.2 390.8,860.4 292.6,860.4 292.6,958.5 194.5,958.5 194.5,1056.6 
			96.4,1056.6 96.4,1154.8 -1.8,1154.8 -1.8,1252.9 -99.9,1252.9 		"/>
	</g>
	<g>
		<polygon class="st2" points="-50.9,1400 -150,1400 -150,1398 -52.9,1398 -52.9,1299.9 45.2,1299.9 45.2,1201.8 143.4,1201.8 
			143.4,1103.6 241.5,1103.6 241.5,1005.5 339.6,1005.5 339.6,907.4 437.8,907.4 437.8,809.2 535.9,809.2 535.9,711.1 634,711.1 
			634,614 636,614 636,713.1 537.9,713.1 537.9,811.2 439.8,811.2 439.8,909.4 341.6,909.4 341.6,1007.5 243.5,1007.5 243.5,1105.6 
			145.4,1105.6 145.4,1203.8 47.2,1203.8 47.2,1301.9 -50.9,1301.9 		"/>
	</g>
	<g>
		<polygon class="st2" points="-149.8,1302 -249,1302 -249,1300 -151.8,1300 -151.8,1201.8 -53.5,1201.8 -53.5,1103.5 44.8,1103.5 
			44.8,1005.2 143,1005.2 143,907 241.2,907 241.2,808.8 339.5,808.8 339.5,710.5 437.8,710.5 437.8,612.2 536,612.2 536,515 
			538,515 538,614.2 439.8,614.2 439.8,712.5 341.5,712.5 341.5,810.8 243.2,810.8 243.2,909 145,909 145,1007.2 46.8,1007.2 
			46.8,1105.5 -51.5,1105.5 -51.5,1203.8 -149.8,1203.8 		"/>
	</g>
	<g>
		<polygon class="st4" points="-198.8,1253 -298,1253 -298,1251 -200.8,1251 -200.8,1152.8 -102.5,1152.8 -102.5,1054.5 
			-4.2,1054.5 -4.2,956.2 94,956.2 94,858 192.2,858 192.2,759.8 290.5,759.8 290.5,661.5 388.8,661.5 388.8,563.2 487,563.2 
			487,466 489,466 489,565.2 390.8,565.2 390.8,663.5 292.5,663.5 292.5,761.8 194.2,761.8 194.2,860 96,860 96,958.2 -2.2,958.2 
			-2.2,1056.5 -100.5,1056.5 -100.5,1154.8 -198.8,1154.8 		"/>
	</g>
	<g>
		<polygon class="st2" points="-247.8,1204 -347,1204 -347,1202 -249.8,1202 -249.8,1103.8 -151.5,1103.8 -151.5,1005.5 
			-53.2,1005.5 -53.2,907.2 45,907.2 45,809 143.2,809 143.2,710.8 241.5,710.8 241.5,612.5 339.8,612.5 339.8,514.2 438,514.2 
			438,417 440,417 440,516.2 341.8,516.2 341.8,614.5 243.5,614.5 243.5,712.8 145.2,712.8 145.2,811 47,811 47,909.2 -51.2,909.2 
			-51.2,1007.5 -149.5,1007.5 -149.5,1105.8 -247.8,1105.8 		"/>
	</g>
	<g>
		<polygon class="st2" points="-296.8,1155 -396,1155 -396,1153 -298.8,1153 -298.8,1054.8 -200.5,1054.8 -200.5,956.5 
			-102.2,956.5 -102.2,858.2 -4,858.2 -4,760 94.2,760 94.2,661.8 192.5,661.8 192.5,563.5 290.8,563.5 290.8,465.2 389,465.2 
			389,368 391,368 391,467.2 292.8,467.2 292.8,565.5 194.5,565.5 194.5,663.8 96.2,663.8 96.2,762 -2,762 -2,860.2 -100.2,860.2 
			-100.2,958.5 -198.5,958.5 -198.5,1056.8 -296.8,1056.8 		"/>
	</g>
	<g>
		<polygon class="st2" points="-345.9,1105 -445,1105 -445,1103 -347.9,1103 -347.9,1004.9 -249.8,1004.9 -249.8,906.8 
			-151.6,906.8 -151.6,808.6 -53.5,808.6 -53.5,710.5 44.6,710.5 44.6,612.4 142.8,612.4 142.8,514.2 240.9,514.2 240.9,416.1 
			339,416.1 339,319 341,319 341,418.1 242.9,418.1 242.9,516.2 144.8,516.2 144.8,614.4 46.6,614.4 46.6,712.5 -51.5,712.5 
			-51.5,810.6 -149.6,810.6 -149.6,908.8 -247.8,908.8 -247.8,1006.9 -345.9,1006.9 		"/>
	</g>
	<g>
		<polygon class="st5" points="-394.9,996 -494,996 -494,994 -396.9,994 -396.9,895.9 -298.8,895.9 -298.8,797.8 -200.6,797.8 
			-200.6,699.6 -102.5,699.6 -102.5,601.5 -4.4,601.5 -4.4,503.4 93.8,503.4 93.8,405.2 191.9,405.2 191.9,307.1 290,307.1 290,210 
			292,210 292,309.1 193.9,309.1 193.9,407.2 95.8,407.2 95.8,505.4 -2.4,505.4 -2.4,603.5 -100.5,603.5 -100.5,701.6 -198.6,701.6 
			-198.6,799.8 -296.8,799.8 -296.8,897.9 -394.9,897.9 		"/>
	</g>
</g>
</svg>
