<?xml version="1.0" encoding="utf-8"?>
<!-- Generator: Adobe Illustrator 24.0.0, SVG Export Plug-In . SVG Version: 6.00 Build 0)  -->
<svg version="1.1" id="Layer_1" xmlns="http://www.w3.org/2000/svg" xmlns:xlink="http://www.w3.org/1999/xlink" x="0px" y="0px"
	 viewBox="0 0 620 617" style="enable-background:new 0 0 620 617;" xml:space="preserve">
<style type="text/css">
	.st0{fill:#C4C4C4;filter:url(#Adobe_OpacityMaskFilter);}
	.st1{mask:url(#mask0_1_);}
	.st2{fill:#4F4F4F;}
	.st3{fill:#E0E0E0;}
	.st4{fill:#FFD338;}
	.st5{fill:#FF8F2B;}
</style>
<defs>
	<filter id="Adobe_OpacityMaskFilter" filterUnits="userSpaceOnUse" x="-97" y="-535" width="1179" height="1249">
		<feColorMatrix  type="matrix" values="1 0 0 0 0  0 1 0 0 0  0 0 1 0 0  0 0 0 1 0"/>
	</filter>
</defs>
<mask maskUnits="userSpaceOnUse" x="-97" y="-535" width="1179" height="1249" id="mask0_1_">
	<rect class="st0" width="620" height="617"/>
</mask>
<g class="st1">
	<g>
		<polygon class="st2" points="1082,251 1080,251 1080,153.9 981.9,153.9 981.9,55.8 883.8,55.8 883.8,-42.4 785.6,-42.4 
			785.6,-140.5 687.5,-140.5 687.5,-238.6 589.4,-238.6 589.4,-336.8 491.2,-336.8 491.2,-434.9 393.1,-434.9 393.1,-533 296,-533 
			296,-535 395.1,-535 395.1,-436.9 493.2,-436.9 493.2,-338.8 591.4,-338.8 591.4,-240.6 689.5,-240.6 689.5,-142.5 787.6,-142.5 
			787.6,-44.4 885.8,-44.4 885.8,53.8 983.9,53.8 983.9,151.9 1082,151.9 		"/>
	</g>
	<g>
		<polygon class="st2" points="984,349 982,349 982,251.9 883.9,251.9 883.9,153.8 785.8,153.8 785.8,55.6 687.6,55.6 687.6,-42.5 
			589.5,-42.5 589.5,-140.6 491.4,-140.6 491.4,-238.8 393.2,-238.8 393.2,-336.9 295.1,-336.9 295.1,-435 198,-435 198,-437 
			297.1,-437 297.1,-338.9 395.2,-338.9 395.2,-240.8 493.4,-240.8 493.4,-142.6 591.5,-142.6 591.5,-44.5 689.6,-44.5 689.6,53.6 
			787.8,53.6 787.8,151.8 885.9,151.8 885.9,249.9 984,249.9 		"/>
	</g>
	<g>
		<polygon class="st2" points="1033,300 1031,300 1031,202.9 932.9,202.9 932.9,104.8 834.8,104.8 834.8,6.6 736.6,6.6 736.6,-91.5 
			638.5,-91.5 638.5,-189.6 540.4,-189.6 540.4,-287.8 442.2,-287.8 442.2,-385.9 344.1,-385.9 344.1,-484 247,-484 247,-486 
			346.1,-486 346.1,-387.9 444.2,-387.9 444.2,-289.8 542.4,-289.8 542.4,-191.6 640.5,-191.6 640.5,-93.5 738.6,-93.5 738.6,4.6 
			836.8,4.6 836.8,102.8 934.9,102.8 934.9,200.9 1033,200.9 		"/>
	</g>
	<g>
		<polygon class="st3" points="935,469 933,469 933,371.8 834.8,371.8 834.8,273.5 736.5,273.5 736.5,175.2 638.2,175.2 638.2,77 
			540,77 540,-21.2 441.8,-21.2 441.8,-119.5 343.5,-119.5 343.5,-217.8 245.2,-217.8 245.2,-316 148,-316 148,-318 247.2,-318 
			247.2,-219.8 345.5,-219.8 345.5,-121.5 443.8,-121.5 443.8,-23.2 542,-23.2 542,75 640.2,75 640.2,173.2 738.5,173.2 
			738.5,271.5 836.8,271.5 836.8,369.8 935,369.8 		"/>
	</g>
	<g>
		<polygon class="st4" points="886,518 884,518 884,420.8 785.8,420.8 785.8,322.5 687.5,322.5 687.5,224.2 589.2,224.2 589.2,126 
			491,126 491,27.8 392.8,27.8 392.8,-70.5 294.5,-70.5 294.5,-168.8 196.2,-168.8 196.2,-267 99,-267 99,-269 198.2,-269 
			198.2,-170.8 296.5,-170.8 296.5,-72.5 394.8,-72.5 394.8,25.8 493,25.8 493,124 591.2,124 591.2,222.2 689.5,222.2 689.5,320.5 
			787.8,320.5 787.8,418.8 886,418.8 		"/>
	</g>
	<g>
		<polygon class="st3" points="837,567 835,567 835,469.8 736.8,469.8 736.8,371.5 638.5,371.5 638.5,273.2 540.2,273.2 540.2,175 
			442,175 442,76.8 343.8,76.8 343.8,-21.5 245.5,-21.5 245.5,-119.8 147.2,-119.8 147.2,-218 50,-218 50,-220 149.2,-220 
			149.2,-121.8 247.5,-121.8 247.5,-23.5 345.8,-23.5 345.8,74.8 444,74.8 444,173 542.2,173 542.2,271.2 640.5,271.2 640.5,369.5 
			738.8,369.5 738.8,467.8 837,467.8 		"/>
	</g>
	<g>
		<polygon class="st5" points="788,616 786,616 786,518.8 687.8,518.8 687.8,420.5 589.5,420.5 589.5,322.2 491.2,322.2 491.2,224 
			393,224 393,125.8 294.8,125.8 294.8,27.5 196.5,27.5 196.5,-70.8 98.2,-70.8 98.2,-169 1,-169 1,-171 100.2,-171 100.2,-72.8 
			198.5,-72.8 198.5,25.5 296.8,25.5 296.8,123.8 395,123.8 395,222 493.2,222 493.2,320.2 591.5,320.2 591.5,418.5 689.8,418.5 
			689.8,516.8 788,516.8 		"/>
	</g>
	<g>
		<polygon class="st3" points="738,665 736,665 736,567.9 637.9,567.9 637.9,469.8 539.8,469.8 539.8,371.6 441.6,371.6 
			441.6,273.5 343.5,273.5 343.5,175.4 245.4,175.4 245.4,77.2 147.2,77.2 147.2,-20.9 49.1,-20.9 49.1,-119 -48,-119 -48,-121 
			51.1,-121 51.1,-22.9 149.2,-22.9 149.2,75.2 247.4,75.2 247.4,173.4 345.5,173.4 345.5,271.5 443.6,271.5 443.6,369.6 
			541.8,369.6 541.8,467.8 639.9,467.8 639.9,565.9 738,565.9 		"/>
	</g>
	<g>
		<polygon class="st3" points="689,714 687,714 687,616.9 588.9,616.9 588.9,518.8 490.8,518.8 490.8,420.6 392.6,420.6 
			392.6,322.5 294.5,322.5 294.5,224.4 196.4,224.4 196.4,126.2 98.2,126.2 98.2,28.1 0.1,28.1 0.1,-70 -97,-70 -97,-72 2.1,-72 
			2.1,26.1 100.2,26.1 100.2,124.2 198.4,124.2 198.4,222.4 296.5,222.4 296.5,320.5 394.6,320.5 394.6,418.6 492.8,418.6 
			492.8,516.8 590.9,516.8 590.9,614.9 689,614.9 		"/>
	</g>
</g>
</svg>
