<?xml version="1.0" encoding="utf-8"?>
<!-- Generator: Adobe Illustrator 24.0.0, SVG Export Plug-In . SVG Version: 6.00 Build 0)  -->
<svg version="1.1" id="Layer_1" xmlns="http://www.w3.org/2000/svg" xmlns:xlink="http://www.w3.org/1999/xlink" x="0px" y="0px"
	 viewBox="0 0 288 574" style="enable-background:new 0 0 288 574;" xml:space="preserve">
<style type="text/css">
	.st0{fill:#C4C4C4;filter:url(#Adobe_OpacityMaskFilter);}
	.st1{mask:url(#mask0_1_);}
	.st2{fill:#E0E0E0;}
	.st3{fill:#FFD338;}
	.st4{fill:#FF8F2B;}
	.st5{opacity:0.1;}
	.st6{fill:#FFFFFF;}
	.st7{fill:#C4C4C4;filter:url(#Adobe_OpacityMaskFilter_1_);}
	.st8{mask:url(#mask1_1_);}
</style>
<defs>
	<filter id="Adobe_OpacityMaskFilter" filterUnits="userSpaceOnUse" x="-195" y="0" width="528" height="528">
		<feColorMatrix  type="matrix" values="1 0 0 0 0  0 1 0 0 0  0 0 1 0 0  0 0 0 1 0"/>
	</filter>
</defs>
<mask maskUnits="userSpaceOnUse" x="-195" y="0" width="528" height="528" id="mask0_1_">
	<rect class="st0" width="288" height="287"/>
</mask>
<g class="st1">
	<g>
		<polygon class="st2" points="333,360 331,360 331,316.1 286.1,316.1 286.1,271.2 241.2,271.2 241.2,226.4 196.4,226.4 
			196.4,181.5 151.5,181.5 151.5,136.6 106.6,136.6 106.6,91.8 61.8,91.8 61.8,46.9 16.9,46.9 16.9,2 -27,2 -27,0 18.9,0 18.9,44.9 
			63.8,44.9 63.8,89.8 108.6,89.8 108.6,134.6 153.5,134.6 153.5,179.5 198.4,179.5 198.4,224.4 243.2,224.4 243.2,269.2 
			288.1,269.2 288.1,314.1 333,314.1 		"/>
	</g>
	<g>
		<polygon class="st3" points="288,405 286,405 286,361.1 241.1,361.1 241.1,316.2 196.2,316.2 196.2,271.4 151.4,271.4 
			151.4,226.5 106.5,226.5 106.5,181.6 61.6,181.6 61.6,136.8 16.8,136.8 16.8,91.9 -28.1,91.9 -28.1,47 -72,47 -72,45 -26.1,45 
			-26.1,89.9 18.8,89.9 18.8,134.8 63.6,134.8 63.6,179.6 108.5,179.6 108.5,224.5 153.4,224.5 153.4,269.4 198.2,269.4 
			198.2,314.2 243.1,314.2 243.1,359.1 288,359.1 		"/>
	</g>
	<g>
		<polygon class="st2" points="311,383 309,383 309,339 264,339 264,294 219,294 219,249 174,249 174,204 129,204 129,159 84,159 
			84,114 39,114 39,69 -6,69 -6,24 -50,24 -50,22 -4,22 -4,67 41,67 41,112 86,112 86,157 131,157 131,202 176,202 176,247 221,247 
			221,292 266,292 266,337 311,337 		"/>
	</g>
	<g>
		<polygon class="st2" points="266,428 264,428 264,384 219,384 219,339 174,339 174,294 129,294 129,249 84,249 84,204 39,204 
			39,159 -6,159 -6,114 -51,114 -51,69 -95,69 -95,67 -49,67 -49,112 -4,112 -4,157 41,157 41,202 86,202 86,247 131,247 131,292 
			176,292 176,337 221,337 221,382 266,382 		"/>
	</g>
	<g>
		<polygon class="st2" points="243,451 241,451 241,407 196,407 196,362 151,362 151,317 106,317 106,272 61,272 61,227 16,227 
			16,182 -29,182 -29,137 -74,137 -74,92 -118,92 -118,90 -72,90 -72,135 -27,135 -27,180 18,180 18,225 63,225 63,270 108,270 
			108,315 153,315 153,360 198,360 198,405 243,405 		"/>
	</g>
	<g>
		<polygon class="st4" points="221,473 219,473 219,429 174,429 174,384 129,384 129,339 84,339 84,294 39,294 39,249 -6,249 
			-6,204 -51,204 -51,159 -96,159 -96,114 -140,114 -140,112 -94,112 -94,157 -49,157 -49,202 -4,202 -4,247 41,247 41,292 86,292 
			86,337 131,337 131,382 176,382 176,427 221,427 		"/>
	</g>
	<g>
		<polygon class="st2" points="198,496 196,496 196,452 151,452 151,407 106,407 106,362 61,362 61,317 16,317 16,272 -29,272 
			-29,227 -74,227 -74,182 -119,182 -119,137 -163,137 -163,135 -117,135 -117,180 -72,180 -72,225 -27,225 -27,270 18,270 18,315 
			63,315 63,360 108,360 108,405 153,405 153,450 198,450 		"/>
	</g>
	<g class="st5">
		<polygon class="st6" points="165,528 163,528 163,484.1 118.1,484.1 118.1,439.2 73.2,439.2 73.2,394.4 28.4,394.4 28.4,349.5 
			-16.5,349.5 -16.5,304.6 -61.4,304.6 -61.4,259.8 -106.2,259.8 -106.2,214.9 -151.1,214.9 -151.1,170 -195,170 -195,168 
			-149.1,168 -149.1,212.9 -104.2,212.9 -104.2,257.8 -59.4,257.8 -59.4,302.6 -14.5,302.6 -14.5,347.5 30.4,347.5 30.4,392.4 
			75.2,392.4 75.2,437.2 120.1,437.2 120.1,482.1 165,482.1 		"/>
	</g>
</g>
<defs>
	<filter id="Adobe_OpacityMaskFilter_1_" filterUnits="userSpaceOnUse" x="-195" y="46" width="528" height="528">
		<feColorMatrix  type="matrix" values="1 0 0 0 0  0 1 0 0 0  0 0 1 0 0  0 0 0 1 0"/>
	</filter>
</defs>
<mask maskUnits="userSpaceOnUse" x="-195" y="46" width="528" height="528" id="mask1_1_">
	<rect y="287" class="st7" width="288" height="287"/>
</mask>
<g class="st8">
	<g>
		<polygon class="st2" points="18.9,574 -27,574 -27,572 16.9,572 16.9,527.1 61.8,527.1 61.8,482.2 106.6,482.2 106.6,437.4 
			151.5,437.4 151.5,392.5 196.4,392.5 196.4,347.6 241.2,347.6 241.2,302.8 286.1,302.8 286.1,257.9 331,257.9 331,214 333,214 
			333,259.9 288.1,259.9 288.1,304.8 243.2,304.8 243.2,349.6 198.4,349.6 198.4,394.5 153.5,394.5 153.5,439.4 108.6,439.4 
			108.6,484.2 63.8,484.2 63.8,529.1 18.9,529.1 		"/>
	</g>
	<g>
		<polygon class="st2" points="-26.1,529 -72,529 -72,527 -28.1,527 -28.1,482.1 16.8,482.1 16.8,437.2 61.6,437.2 61.6,392.4 
			106.5,392.4 106.5,347.5 151.4,347.5 151.4,302.6 196.2,302.6 196.2,257.8 241.1,257.8 241.1,212.9 286,212.9 286,169 288,169 
			288,214.9 243.1,214.9 243.1,259.8 198.2,259.8 198.2,304.6 153.4,304.6 153.4,349.5 108.5,349.5 108.5,394.4 63.6,394.4 
			63.6,439.2 18.8,439.2 18.8,484.1 -26.1,484.1 		"/>
	</g>
	<g>
		<polygon class="st2" points="-4,552 -50,552 -50,550 -6,550 -6,505 39,505 39,460 84,460 84,415 129,415 129,370 174,370 174,325 
			219,325 219,280 264,280 264,235 309,235 309,191 311,191 311,237 266,237 266,282 221,282 221,327 176,327 176,372 131,372 
			131,417 86,417 86,462 41,462 41,507 -4,507 		"/>
	</g>
	<g>
		<polygon class="st4" points="-49,507 -95,507 -95,505 -51,505 -51,460 -6,460 -6,415 39,415 39,370 84,370 84,325 129,325 
			129,280 174,280 174,235 219,235 219,190 264,190 264,146 266,146 266,192 221,192 221,237 176,237 176,282 131,282 131,327 
			86,327 86,372 41,372 41,417 -4,417 -4,462 -49,462 		"/>
	</g>
	<g>
		<polygon class="st2" points="-72,484 -118,484 -118,482 -74,482 -74,437 -29,437 -29,392 16,392 16,347 61,347 61,302 106,302 
			106,257 151,257 151,212 196,212 196,167 241,167 241,123 243,123 243,169 198,169 198,214 153,214 153,259 108,259 108,304 
			63,304 63,349 18,349 18,394 -27,394 -27,439 -72,439 		"/>
	</g>
	<g>
		<polygon class="st4" points="-94,462 -140,462 -140,460 -96,460 -96,415 -51,415 -51,370 -6,370 -6,325 39,325 39,280 84,280 
			84,235 129,235 129,190 174,190 174,145 219,145 219,101 221,101 221,147 176,147 176,192 131,192 131,237 86,237 86,282 41,282 
			41,327 -4,327 -4,372 -49,372 -49,417 -94,417 		"/>
	</g>
	<g>
		<polygon class="st2" points="-117,439 -163,439 -163,437 -119,437 -119,392 -74,392 -74,347 -29,347 -29,302 16,302 16,257 
			61,257 61,212 106,212 106,167 151,167 151,122 196,122 196,78 198,78 198,124 153,124 153,169 108,169 108,214 63,214 63,259 
			18,259 18,304 -27,304 -27,349 -72,349 -72,394 -117,394 		"/>
	</g>
	<g class="st5">
		<polygon class="st6" points="-149.1,406 -195,406 -195,404 -151.1,404 -151.1,359.1 -106.2,359.1 -106.2,314.2 -61.4,314.2 
			-61.4,269.4 -16.5,269.4 -16.5,224.5 28.4,224.5 28.4,179.6 73.2,179.6 73.2,134.8 118.1,134.8 118.1,89.9 163,89.9 163,46 
			165,46 165,91.9 120.1,91.9 120.1,136.8 75.2,136.8 75.2,181.6 30.4,181.6 30.4,226.5 -14.5,226.5 -14.5,271.4 -59.4,271.4 
			-59.4,316.2 -104.2,316.2 -104.2,361.1 -149.1,361.1 		"/>
	</g>
</g>
</svg>
